<?xml version="1.0" encoding="utf-8"?>
<!-- Generator: Adobe Illustrator 14.0.0, SVG Export Plug-In . SVG Version: 6.00 Build 43363)  -->
<!DOCTYPE svg PUBLIC "-//W3C//DTD SVG 1.1//EN" "http://www.w3.org/Graphics/SVG/1.1/DTD/svg11.dtd">
<svg version="1.1" id="Layer_1" xmlns="http://www.w3.org/2000/svg" xmlns:xlink="http://www.w3.org/1999/xlink" x="0px" y="0px"
	 width="25px" height="23.052px" viewBox="86.822 146.763 25 23.052" enable-background="new 86.822 146.763 25 23.052"
	 xml:space="preserve">
<path d="M111.47,149.307l-13.132,14.054c-0.246,0.262-0.59,0.412-0.949,0.412H97.38c-0.363-0.002-0.708-0.157-0.951-0.425
	l-4.389-4.83c-0.482-0.53-0.444-1.352,0.088-1.834c0.531-0.482,1.352-0.444,1.834,0.087l3.441,3.786l12.17-13.023
	c0.489-0.524,1.311-0.552,1.836-0.063c0.523,0.49,0.552,1.312,0.062,1.835L111.47,149.307z M108.575,156.371
	c-0.718,0-1.298,0.581-1.298,1.299v9.549H89.419v-17.857h14.357c0.718,0,1.299-0.581,1.299-1.299s-0.581-1.299-1.299-1.299H88.121
	c-0.718,0-1.299,0.581-1.299,1.299v20.455c0,0.718,0.581,1.299,1.299,1.299h20.455c0.718,0,1.299-0.581,1.299-1.299V157.67
	C109.874,156.952,109.293,156.371,108.575,156.371z"/>
</svg>
